<svg width="385" height="376" viewBox="0 0 385 376" fill="none" xmlns="http://www.w3.org/2000/svg">
<path d="M217.22 177.775C211.442 163.141 195.567 155.694 181.762 161.145C167.959 166.595 161.452 182.879 167.23 197.513C173.01 212.149 188.886 219.594 202.689 214.144C216.494 208.693 222.999 192.411 217.22 177.775Z" fill="#56595A" fill-opacity="0.67"/>
<path fill-rule="evenodd" clip-rule="evenodd" d="M253.977 106.394C250.276 81.57 240.261 36.7813 211.226 31.7198C182.326 26.6776 162.801 65.9148 153.269 88.6031C130.919 78.6921 89.05 63.8309 71.3437 87.4002C53.7121 110.871 77.2626 149.507 91.693 170.259C72.5663 185.367 40.9134 214.139 52.2713 242.905C63.597 271.588 106.818 272.228 130.976 270.238C134.646 295.385 143.969 338.954 172.897 344.005C202.015 349.082 222.595 310.31 232.205 287.384C254.807 297.496 295.347 312.335 312.989 288.851C330.686 265.293 308.176 226.091 293.693 205.207C312.027 190.402 343.364 160.709 332.179 132.383C320.931 103.895 277.915 104.473 253.977 106.394ZM285.62 194.296C277.382 183.805 267.608 173.049 256.602 162.298C257.15 147.341 256.818 133.046 255.597 119.873C273.161 118.503 311.865 115.939 320.223 137.104C328.658 158.469 300.072 182.595 285.62 194.296ZM302.665 280.245C289.502 297.766 253.619 282.436 236.941 275.003C241.217 262.742 244.901 248.997 247.932 234.153C260.962 227.537 272.924 220.409 283.396 212.989C293.621 227.77 315.886 262.646 302.665 280.245ZM174.535 330.662C152.966 326.901 146.504 287.288 143.796 268.766C156.323 266.928 169.778 263.851 183.803 259.662C196.108 268.157 208.412 275.574 220.257 281.647C214.248 295.991 196.204 334.44 174.535 330.662ZM64.228 238.183C55.7608 216.739 85.6018 192.33 99.7255 181.202C107.998 191.898 117.579 202.713 128.167 213.295C127.668 228.473 128.073 243.143 129.363 256.76C112.257 258.156 72.7004 259.641 64.228 238.183ZM81.6664 96.0063C94.8849 78.4118 132.249 93.7973 148.464 100.96C143.988 113.429 140.113 127.141 136.971 141.659C124.318 148.151 112.536 155.204 102.05 162.561C90.4167 145.821 68.4623 113.582 81.6664 96.0063ZM215.365 126.633C224.768 124.301 233.953 122.512 242.755 121.284C243.579 130.433 243.957 140.191 243.885 150.375C234.676 142.077 225.172 134.135 215.365 126.633ZM160.423 106.71C168.439 110.867 176.756 115.759 185.22 121.288C173.979 125.087 162.939 129.444 152.133 134.342C154.57 124.592 157.352 115.329 160.423 106.71ZM129.138 195.672C122.199 188.292 115.821 180.859 110.105 173.506C117.343 168.458 125.249 163.547 133.658 158.868C131.597 171.031 130.09 183.316 129.138 195.672ZM169.728 249.474C160.134 252.009 150.907 253.953 142.196 255.263C141.327 245.827 140.899 235.831 140.924 225.482C150.173 233.936 159.789 241.942 169.728 249.474ZM224.98 269.238C216.752 264.992 208.268 260.053 199.701 254.52C210.968 250.604 222.074 246.22 232.95 241.32C230.601 251.325 227.932 260.68 224.98 269.238ZM255.588 179.681C262.9 187.245 269.507 194.746 275.296 202.074C267.955 207.243 259.817 212.284 251.049 217.103C253.055 204.721 254.595 192.237 255.588 179.681ZM236.462 224.639C220.014 232.618 202.948 239.34 185.528 244.872C169.997 233.752 155.221 221.443 141.381 208.072C142.33 188.901 144.661 169.873 148.369 151.184C164.805 143.122 181.88 136.375 199.395 131.046C214.788 142.192 229.461 154.459 243.364 167.596C242.331 186.791 239.967 205.869 236.462 224.639ZM209.59 45.0601C231.254 48.8408 238.451 89.8063 241.146 107.792C228.411 109.535 214.966 112.401 201.245 116.3C188.968 107.726 176.831 100.315 165.223 94.3354C172.218 77.7157 188.137 41.3171 209.59 45.0601Z" fill="#56595A" fill-opacity="0.67"/>
</svg>
